<svg width="1200" height="630" viewBox="0 0 1200 630" xmlns="http://www.w3.org/2000/svg">
  <defs>
    <filter id="glow" x="-50%" y="-50%" width="200%" height="200%">
      <feGaussianBlur stdDeviation="8" result="coloredBlur"/>
      <feMerge>
        <feMergeNode in="coloredBlur"/>
        <feMergeNode in="SourceGraphic"/>
      </feMerge>
    </filter>
    <linearGradient id="bgGradient" x1="0%" y1="0%" x2="100%" y2="100%">
      <stop offset="0%" style="stop-color:#2e474f"/>
      <stop offset="100%" style="stop-color:#3a5861"/>
    </linearGradient>
  </defs>

  <!-- Background -->
  <rect width="1200" height="630" fill="url(#bgGradient)"/>

  <!-- Timeline Bar Background -->
  <rect x="100" y="300" width="1000" height="12" rx="6" fill="rgba(0,184,196,0.15)"/>

  <!-- 90 Min Block (Deep Work) - Large -->
  <rect x="100" y="200" width="520" height="200" rx="20" fill="rgba(0,184,196,0.15)" stroke="#00b8c4" stroke-width="4"/>
  <rect x="100" y="300" width="520" height="12" rx="6" fill="#00b8c4" filter="url(#glow)"/>
  <!-- 90 circle -->
  <circle cx="360" cy="300" r="60" fill="rgba(0,184,196,0.2)" stroke="#00b8c4" stroke-width="3" filter="url(#glow)"/>

  <!-- 20 Min Block (Pause) - Medium -->
  <rect x="640" y="230" width="180" height="140" rx="16" fill="rgba(168,192,197,0.1)" stroke="#a8c0c5" stroke-width="3"/>
  <rect x="640" y="300" width="180" height="12" rx="6" fill="#a8c0c5" opacity="0.6"/>
  <!-- 20 circle -->
  <circle cx="730" cy="300" r="40" fill="rgba(168,192,197,0.15)" stroke="#a8c0c5" stroke-width="2"/>

  <!-- 5 Min Block (Reset) - Small -->
  <rect x="840" y="250" width="120" height="100" rx="12" fill="rgba(0,184,196,0.08)" stroke="#00b8c4" stroke-width="2" stroke-dasharray="8 4"/>
  <rect x="840" y="300" width="120" height="12" rx="6" fill="rgba(0,184,196,0.4)"/>
  <!-- 5 circle -->
  <circle cx="900" cy="300" r="25" fill="rgba(0,184,196,0.1)" stroke="#00b8c4" stroke-width="2"/>

  <!-- Repeat Arrow -->
  <path d="M 980 300 Q 1050 300, 1050 200 Q 1050 100, 600 100 Q 150 100, 150 200"
        fill="none" stroke="rgba(0,184,196,0.3)" stroke-width="3" stroke-dasharray="12 6"/>
  <path d="M 160 185 L 150 200 L 165 205" fill="none" stroke="rgba(0,184,196,0.5)" stroke-width="3" stroke-linecap="round"/>
</svg>