<svg width="1200" height="630" viewBox="0 0 1200 630" xmlns="http://www.w3.org/2000/svg">
  <defs>
    <filter id="glow" x="-50%" y="-50%" width="200%" height="200%">
      <feGaussianBlur stdDeviation="8" result="coloredBlur"/>
      <feMerge>
        <feMergeNode in="coloredBlur"/>
        <feMergeNode in="SourceGraphic"/>
      </feMerge>
    </filter>
    <linearGradient id="bgGradient" x1="0%" y1="0%" x2="100%" y2="100%">
      <stop offset="0%" style="stop-color:#2e474f"/>
      <stop offset="100%" style="stop-color:#3a5861"/>
    </linearGradient>
  </defs>

  <!-- Background -->
  <rect width="1200" height="630" fill="url(#bgGradient)"/>

  <!-- Calendar simplified -->
  <g transform="translate(350, 165)">
    <!-- Calendar body -->
    <rect x="0" y="40" width="220" height="180" rx="16" fill="rgba(0,184,196,0.1)" stroke="#00b8c4" stroke-width="3"/>
    <!-- Calendar header -->
    <rect x="0" y="40" width="220" height="50" rx="16" fill="rgba(0,184,196,0.2)"/>
    <rect x="0" y="75" width="220" height="15" fill="rgba(0,184,196,0.1)"/>
    <!-- Calendar rings -->
    <rect x="50" y="20" width="16" height="40" rx="6" fill="#00b8c4" filter="url(#glow)"/>
    <rect x="154" y="20" width="16" height="40" rx="6" fill="#00b8c4" filter="url(#glow)"/>
    <!-- Highlighted day circle -->
    <circle cx="110" cy="155" r="35" fill="rgba(0,184,196,0.3)" stroke="#00b8c4" stroke-width="3" filter="url(#glow)"/>
  </g>

  <!-- Arrow -->
  <g transform="translate(600, 315)">
    <line x1="0" y1="0" x2="80" y2="0" stroke="#00b8c4" stroke-width="4" opacity="0.6"/>
    <path d="M 75 -10 L 95 0 L 75 10" fill="none" stroke="#00b8c4" stroke-width="4" stroke-linecap="round" stroke-linejoin="round"/>
  </g>

  <!-- Target/Crosshair -->
  <g transform="translate(750, 200)">
    <circle cx="100" cy="115" r="90" fill="none" stroke="rgba(0,184,196,0.2)" stroke-width="3"/>
    <circle cx="100" cy="115" r="55" fill="none" stroke="rgba(0,184,196,0.4)" stroke-width="3"/>
    <circle cx="100" cy="115" r="25" fill="rgba(0,184,196,0.2)" stroke="#00b8c4" stroke-width="4" filter="url(#glow)"/>
    <!-- Crosshair lines -->
    <line x1="100" y1="50" x2="100" y2="25" stroke="#00b8c4" stroke-width="3"/>
    <line x1="100" y1="180" x2="100" y2="205" stroke="#00b8c4" stroke-width="3"/>
    <line x1="35" y1="115" x2="10" y2="115" stroke="#00b8c4" stroke-width="3"/>
    <line x1="165" y1="115" x2="190" y2="115" stroke="#00b8c4" stroke-width="3"/>
    <!-- Center dot -->
    <circle cx="100" cy="115" r="8" fill="#00b8c4" filter="url(#glow)"/>
  </g>
</svg>