<svg width="1200" height="630" viewBox="0 0 1200 630" xmlns="http://www.w3.org/2000/svg">
  <defs>
    <filter id="glow" x="-50%" y="-50%" width="200%" height="200%">
      <feGaussianBlur stdDeviation="8" result="coloredBlur"/>
      <feMerge>
        <feMergeNode in="coloredBlur"/>
        <feMergeNode in="SourceGraphic"/>
      </feMerge>
    </filter>
    <linearGradient id="bgGradient" x1="0%" y1="0%" x2="100%" y2="100%">
      <stop offset="0%" style="stop-color:#2e474f"/>
      <stop offset="100%" style="stop-color:#3a5861"/>
    </linearGradient>
  </defs>

  <!-- Background -->
  <rect width="1200" height="630" fill="url(#bgGradient)"/>

  <!-- Pyramid - 3 Levels -->
  <!-- Level 1: Top (1) -->
  <path
    d="M 600 100 L 500 220 L 700 220 Z"
    fill="rgba(0,184,196,0.25)"
    stroke="#00b8c4"
    stroke-width="4"
    filter="url(#glow)"
  />
  <circle cx="600" cy="160" r="20" fill="#00b8c4" filter="url(#glow)"/>

  <!-- Level 2: Middle (3) -->
  <path
    d="M 500 230 L 380 380 L 820 380 L 700 230 Z"
    fill="rgba(0,184,196,0.15)"
    stroke="#00b8c4"
    stroke-width="3"
  />
  <circle cx="500" cy="310" r="16" fill="#00b8c4" opacity="0.8"/>
  <circle cx="600" cy="310" r="16" fill="#00b8c4" opacity="0.8"/>
  <circle cx="700" cy="310" r="16" fill="#00b8c4" opacity="0.8"/>

  <!-- Level 3: Bottom (12) -->
  <path
    d="M 380 390 L 240 560 L 960 560 L 820 390 Z"
    fill="rgba(0,184,196,0.08)"
    stroke="#00b8c4"
    stroke-width="2"
  />
  <!-- 12 small dots -->
  <g fill="#00b8c4" opacity="0.5">
    <circle cx="320" cy="480" r="10"/>
    <circle cx="380" cy="480" r="10"/>
    <circle cx="440" cy="480" r="10"/>
    <circle cx="500" cy="480" r="10"/>
    <circle cx="560" cy="480" r="10"/>
    <circle cx="620" cy="480" r="10"/>
    <circle cx="680" cy="480" r="10"/>
    <circle cx="740" cy="480" r="10"/>
    <circle cx="800" cy="480" r="10"/>
    <circle cx="860" cy="480" r="10"/>
    <circle cx="380" cy="530" r="10"/>
    <circle cx="820" cy="530" r="10"/>
  </g>
</svg>