<svg width="1200" height="630" viewBox="0 0 1200 630" xmlns="http://www.w3.org/2000/svg">
  <defs>
    <filter id="glow" x="-50%" y="-50%" width="200%" height="200%">
      <feGaussianBlur stdDeviation="8" result="coloredBlur"/>
      <feMerge>
        <feMergeNode in="coloredBlur"/>
        <feMergeNode in="SourceGraphic"/>
      </feMerge>
    </filter>
    <linearGradient id="bgGradient" x1="0%" y1="0%" x2="100%" y2="100%">
      <stop offset="0%" style="stop-color:#2e474f"/>
      <stop offset="100%" style="stop-color:#3a5861"/>
    </linearGradient>
  </defs>

  <!-- Background -->
  <rect width="1200" height="630" fill="url(#bgGradient)"/>

  <!-- Left Side: Chaotic Sound Waves (Noise) -->
  <g opacity="0.4" transform="translate(100, 315)">
    <path d="M 0 0 Q 30 -80, 60 20 Q 90 100, 120 -40 Q 150 -120, 180 50 Q 210 80, 240 -60 Q 270 -100, 300 30"
          fill="none" stroke="#a8c0c5" stroke-width="4" stroke-linecap="round"/>
    <path d="M 0 20 Q 40 -50, 80 40 Q 120 90, 160 -30 Q 200 -80, 240 20 Q 280 60, 320 -20"
          fill="none" stroke="#a8c0c5" stroke-width="3" stroke-linecap="round" opacity="0.5"/>
  </g>

  <!-- Notification Icons (scattered chaos) -->
  <g fill="#a8c0c5" opacity="0.3">
    <rect x="150" y="180" width="30" height="30" rx="6"/>
    <rect x="250" y="150" width="25" height="25" rx="5"/>
    <rect x="350" y="200" width="28" height="28" rx="6"/>
    <rect x="200" y="420" width="26" height="26" rx="5"/>
    <rect x="300" y="450" width="24" height="24" rx="5"/>
  </g>

  <!-- Center Arrow Transition -->
  <g transform="translate(500, 315)">
    <line x1="0" y1="0" x2="100" y2="0" stroke="#00b8c4" stroke-width="4" opacity="0.6"/>
    <path d="M 95 -12 L 115 0 L 95 12" fill="none" stroke="#00b8c4" stroke-width="4" stroke-linecap="round" stroke-linejoin="round"/>
  </g>

  <!-- Right Side: Calm Flat Line (Silence) -->
  <line x1="650" y1="315" x2="1050" y2="315" stroke="#00b8c4" stroke-width="6" stroke-linecap="round" filter="url(#glow)"/>

  <!-- Subtle pulse in the middle of calm line -->
  <path d="M 800 315 Q 820 280, 850 315 Q 880 350, 900 315"
        fill="none" stroke="#00b8c4" stroke-width="5" stroke-linecap="round" filter="url(#glow)"/>

  <!-- Glow endpoint -->
  <circle cx="1050" cy="315" r="15" fill="#00b8c4" filter="url(#glow)"/>

  <!-- Inner calm circle (like zen) -->
  <circle cx="850" cy="315" r="80" fill="none" stroke="rgba(0,184,196,0.15)" stroke-width="2"/>
  <circle cx="850" cy="315" r="50" fill="none" stroke="rgba(0,184,196,0.25)" stroke-width="2"/>
</svg>